<?xml version="1.0" standalone="no"?>
<!DOCTYPE svg PUBLIC "-//W3C//DTD SVG 1.1//EN" "http://www.w3.org/Graphics/SVG/1.1/DTD/svg11.dtd" >
<svg xmlns="http://www.w3.org/2000/svg">
<metadata>Generated by IcoMoon</metadata>
<defs>
<font id="suysing-icons" horiz-adv-x="1024">
<font-face units-per-em="1024" ascent="960" descent="-64" />
<missing-glyph horiz-adv-x="1024" />
<glyph unicode="&#x20;" horiz-adv-x="512" d="" />
<glyph unicode="&#xe900;" glyph-name="ico-arrow-l" d="M802.987 34.987l-390.827 391.68 390.827 391.68-120.32 120.32-512-512 512-512z" />
<glyph unicode="&#xe901;" glyph-name="ico-arrow-r" d="M221.013 34.987l390.827 391.68-390.827 391.68 120.32 120.32 512-512-512-512z" />
<glyph unicode="&#xe902;" glyph-name="ico-box-checked" d="M810.667 810.667h-597.333c-47.36 0-85.333-38.4-85.333-85.333v-597.333c0-46.933 37.973-85.333 85.333-85.333h597.333c47.36 0 85.333 38.4 85.333 85.333v597.333c0 46.933-37.973 85.333-85.333 85.333zM426.667 213.334l-213.333 213.333 60.16 60.16 153.173-152.747 323.84 323.84 60.16-60.587-384-384z" />
<glyph unicode="&#xe903;" glyph-name="ico-box-outline" d="M810.667 725.334v-597.333h-597.333v597.333h597.333zM810.667 810.667h-597.333c-46.933 0-85.333-38.4-85.333-85.333v-597.333c0-46.933 38.4-85.333 85.333-85.333h597.333c46.933 0 85.333 38.4 85.333 85.333v597.333c0 46.933-38.4 85.333-85.333 85.333z" />
<glyph unicode="&#xe904;" glyph-name="ico-filter" d="M98.133 610.134c-7.763 7.612-12.628 18.155-12.8 29.835v170.699c0 23.564 19.103 42.667 42.667 42.667v0h768c23.564 0 42.667-19.103 42.667-42.667v0-170.667c-0.172-11.712-5.037-22.255-12.793-29.86l-0.007-0.007-285.867-286.72v-110.080c-0.172-11.712-5.037-22.255-12.793-29.86l-170.674-170.674c-7.69-7.544-18.237-12.201-29.871-12.201-23.353 0-42.325 18.762-42.662 42.036v281.205l-285.867 285.867zM170.667 768v-110.507l285.867-285.867c7.861-7.709 12.749-18.426 12.8-30.284v-195.85l85.333 85.333v110.507c0.172 11.712 5.037 22.255 12.793 29.86l0.007 0.007 285.867 286.72v110.080h-682.667z" />
<glyph unicode="&#xe905;" glyph-name="ico-grid" d="M213.333 810.667h170.667c47.128 0 85.333-38.205 85.333-85.333v0-170.667c0-47.128-38.205-85.333-85.333-85.333v0h-170.667c-47.128 0-85.333 38.205-85.333 85.333v0 170.667c0 46.933 38.4 85.333 85.333 85.333zM213.333 725.334v-170.667h170.667v170.667h-170.667zM640 810.667h170.667c47.128 0 85.333-38.205 85.333-85.333v0-170.667c0-47.128-38.205-85.333-85.333-85.333v0h-170.667c-47.128 0-85.333 38.205-85.333 85.333v0 170.667c0 46.933 38.4 85.333 85.333 85.333zM640 725.334v-170.667h170.667v170.667h-170.667zM213.333 384h170.667c47.128 0 85.333-38.205 85.333-85.333v0-170.667c0-47.128-38.205-85.333-85.333-85.333v0h-170.667c-47.128 0-85.333 38.205-85.333 85.333v0 170.667c0 46.933 38.4 85.333 85.333 85.333zM213.333 298.667v-170.667h170.667v170.667h-170.667zM640 384h170.667c47.128 0 85.333-38.205 85.333-85.333v0-170.667c0-47.128-38.205-85.333-85.333-85.333v0h-170.667c-47.128 0-85.333 38.205-85.333 85.333v0 170.667c0 46.933 38.4 85.333 85.333 85.333zM640 298.667v-170.667h170.667v170.667h-170.667z" />
<glyph unicode="&#xe906;" glyph-name="ico-list" d="M158.293 243.627c-3.937 3.773-8.616 6.808-13.791 8.859l-0.289 0.101c-4.793 2.024-10.366 3.201-16.213 3.201s-11.42-1.176-16.495-3.305l0.281 0.105c-5.464-2.152-10.143-5.187-14.095-8.974l0.015 0.014c-3.773-3.937-6.808-8.616-8.859-13.791l-0.101-0.289c-2.109-4.883-3.336-10.568-3.336-16.539 0-11.682 4.695-22.267 12.3-29.972l-0.004 0.005c4.001-3.646 8.658-6.662 13.76-8.838l0.32-0.122c4.771-2.163 10.345-3.423 16.213-3.423s11.443 1.26 16.466 3.525l-0.253-0.102c5.422 2.298 10.079 5.314 14.119 8.995l-0.039-0.035c7.601 7.7 12.296 18.286 12.296 29.968 0 5.971-1.227 11.656-3.442 16.817l0.106-0.278c-2.152 5.464-5.187 10.143-8.974 14.095l0.014-0.015zM298.667 597.334h597.333c23.564 0 42.667 19.103 42.667 42.667s-19.103 42.667-42.667 42.667v0h-597.333c-23.564 0-42.667-19.103-42.667-42.667s19.103-42.667 42.667-42.667v0zM158.293 456.96c-7.7 7.601-18.286 12.296-29.968 12.296-5.971 0-11.656-1.227-16.817-3.442l0.278 0.106c-5.422-2.298-10.079-5.314-14.119-8.995l0.039 0.035c-3.773-3.937-6.808-8.616-8.859-13.791l-0.101-0.289c-2.163-4.771-3.423-10.345-3.423-16.213s1.26-11.443 3.525-16.466l-0.102 0.253c2.298-5.422 5.314-10.079 8.995-14.119l-0.035 0.039c4.001-3.646 8.658-6.662 13.76-8.838l0.32-0.122c4.771-2.163 10.345-3.423 16.213-3.423s11.443 1.26 16.466 3.525l-0.253-0.102c5.422 2.298 10.079 5.314 14.119 8.995l-0.039-0.035c3.646 4.001 6.662 8.658 8.838 13.76l0.122 0.32c2.163 4.771 3.423 10.345 3.423 16.213s-1.26 11.443-3.525 16.466l0.102-0.253c-2.152 5.464-5.187 10.143-8.974 14.095l0.014-0.015zM896 469.334h-597.333c-23.564 0-42.667-19.103-42.667-42.667s19.103-42.667 42.667-42.667v0h597.333c23.564 0 42.667 19.103 42.667 42.667s-19.103 42.667-42.667 42.667v0zM158.293 670.294c-3.937 3.773-8.616 6.808-13.791 8.859l-0.289 0.101c-4.883 2.109-10.568 3.336-16.539 3.336-11.682 0-22.267-4.695-29.972-12.3l0.005 0.004c-3.646-4.001-6.662-8.658-8.838-13.76l-0.122-0.32c-2.163-4.771-3.423-10.345-3.423-16.213s1.26-11.443 3.525-16.466l-0.102 0.253c2.298-5.422 5.314-10.079 8.995-14.119l-0.035 0.039c4.001-3.646 8.658-6.662 13.76-8.838l0.32-0.122c4.883-2.109 10.568-3.336 16.539-3.336 11.682 0 22.267 4.695 29.972 12.3l-0.005-0.004c3.646 4.001 6.662 8.658 8.838 13.76l0.122 0.32c2.163 4.771 3.423 10.345 3.423 16.213s-1.26 11.443-3.525 16.466l0.102-0.253c-2.298 5.422-5.314 10.079-8.995 14.119l0.035-0.039zM896 256h-597.333c-23.564 0-42.667-19.103-42.667-42.667s19.103-42.667 42.667-42.667v0h597.333c23.564 0 42.667 19.103 42.667 42.667s-19.103 42.667-42.667 42.667v0z" />
<glyph unicode="&#xe907;" glyph-name="ico-star-blank" d="M947.2 566.614l-275.342 23.893-107.52 253.156c-19.342 46.080-85.333 46.080-104.676 0l-107.52-253.724-274.773-23.324c-50.062-3.982-70.542-66.56-32.427-99.556l208.782-180.907-62.578-268.516c-11.378-48.924 41.529-87.609 84.764-61.44l236.089 142.222 236.089-142.791c43.236-26.169 96.142 12.516 84.764 61.44l-62.578 269.084 208.782 180.907c38.116 32.996 18.204 95.573-31.858 99.556zM512 204.8l-213.902-129.138 56.889 243.484-188.871 163.84 249.173 21.618 96.711 229.262 97.28-229.831 249.173-21.618-188.871-163.84 56.889-243.484-214.471 129.707z" />
<glyph unicode="&#xe908;" glyph-name="ico-star-filled" d="M512 98.418l236.089-142.791c43.236-26.169 96.142 12.516 84.764 61.44l-62.578 268.516 208.782 180.907c38.116 32.996 17.636 95.573-32.427 99.556l-274.773 23.324-107.52 253.724c-19.342 46.080-85.333 46.080-104.676 0l-107.52-253.156-274.773-23.324c-50.062-3.982-70.542-66.56-32.427-99.556l208.782-180.907-62.578-268.516c-11.378-48.924 41.529-87.609 84.764-61.44l236.089 142.222z" />
<glyph unicode="&#xe909;" glyph-name="ico-play" d="M256 730.067v-606.8c0-12.8 13-20.8 23.4-14.4l481 303.4c10.2 6.4 10.2 22.2 0 28.6l-481 303.4c-10.4 6.6-23.4-1.4-23.4-14.2z" />
<glyph unicode="&#xe90a;" glyph-name="ico-search" d="M683.798 821.505c-72.564 72.402-172.724 117.172-283.341 117.172s-210.777-44.77-283.348-117.179l0.007 0.007c-72.369-72.579-117.115-172.735-117.115-283.341s44.747-210.761 117.125-283.35l-0.010 0.010c72.543-72.278 172.619-116.964 283.133-116.964 85.574 0 164.891 26.794 230.017 72.45l-1.287-0.855c3.558-16.735 11.657-31.197 22.937-42.479l227.581-227.535c15.157-14.463 35.733-23.363 58.387-23.363 46.744 0 84.638 37.894 84.638 84.638 0 22.688-8.927 43.291-23.461 58.489l0.030-0.032-227.489 227.581c-11.279 11.259-25.72 19.354-41.877 22.836l-0.557 0.101c44.806 63.832 71.603 143.143 71.603 228.713 0 110.505-44.691 210.573-116.984 283.114l0.011-0.011zM611.959 326.616c-54.167-54.042-128.932-87.46-211.502-87.46s-157.335 33.417-211.508 87.465l0.005-0.005c-54.009 54.183-87.403 128.943-87.403 211.502s33.394 157.32 87.411 211.51l-0.008-0.008c54.172 54.031 128.936 87.441 211.502 87.441s157.33-33.409 211.509-87.447l-0.006 0.006c54.042-54.167 87.46-128.932 87.46-211.502s-33.417-157.335-87.465-211.508l0.005 0.005z" />
<glyph unicode="&#xe90b;" glyph-name="ico-arrow-d" horiz-adv-x="1536" d="M180.48 863.147l587.52-586.24 587.52 586.24 180.48-180.48-768-768-768 768z" />
<glyph unicode="&#xe90c;" glyph-name="time" d="M512-85.333c-282.77 0-512 229.23-512 512s229.23 512 512 512v0c282.77 0 512-229.23 512-512s-229.23-512-512-512v0zM512 17.067c226.216 0 409.6 183.384 409.6 409.6s-183.384 409.6-409.6 409.6v0c-226.216 0-409.6-183.384-409.6-409.6s183.384-409.6 409.6-409.6v0zM460.8 405.675v328.192h102.4v-286.208l202.24-202.24-72.192-72.192-232.448 232.448z" />
<glyph unicode="&#xe90d;" glyph-name="heart-outlined" horiz-adv-x="1259" d="M1155.402 854.422c-58.607 52.286-136.335 84.238-221.527 84.238s-162.92-31.952-221.856-84.526l0.328 0.288-83.026-76.143-83.105 76.143c-58.592 52.289-136.308 84.243-221.488 84.243s-162.896-31.955-221.816-84.531l0.328 0.288c-63.43-56.065-103.222-137.62-103.222-228.469s39.791-172.403 102.896-228.187l0.325-0.282 526.080-482.817 526.080 482.817c63.396 56.083 103.161 137.632 103.161 228.469s-39.766 172.386-102.838 228.188l-0.323 0.281zM1077.41 472.565l-448.089-418.158-448.167 418.158c-38.688 36.506-62.774 88.128-62.774 145.375 0 2.818 0.058 5.622 0.174 8.412l-0.013-0.399c-0.465 4.838-0.73 10.46-0.73 16.144 0 51.162 21.494 97.305 55.945 129.889l0.084 0.079c39.078 35.177 91.061 56.693 148.068 56.693 1.013 0 2.024-0.007 3.034-0.020l-0.153 0.002c59.594-4.986 112.209-31.424 150.801-71.469l0.070-0.073 153.663-133.723 153.388 133.723c38.696 40.11 91.332 66.545 150.085 71.483l0.864 0.058c0.792 0.010 1.728 0.016 2.665 0.016 57.11 0 109.176-21.593 148.48-57.061l-0.196 0.174c34.414-32.642 55.826-78.7 55.826-129.76 0-5.813-0.278-11.561-0.82-17.231l0.056 0.722c0.104-2.405 0.163-5.227 0.163-8.062 0-57.232-24.088-108.838-62.678-145.234l-0.098-0.092z" />
<glyph unicode="&#xe90e;" glyph-name="ico-cart" d="M725.333 256c70.664-0.038 127.933-57.331 127.933-128 0-70.692-57.308-128-128-128s-128 57.308-128 128c0 15.294 2.682 29.962 7.602 43.558l-0.282-0.891h-185.173c4.632-12.697 7.31-27.354 7.31-42.637 0-70.692-57.308-128-128-128s-128 57.308-128 128c0 16.885 3.269 33.006 9.209 47.765l-0.306-0.861c-55.262 14.985-95.24 64.692-95.24 123.737 0 70.692 57.308 128 128 128 0.333 0 0.666-0.001 0.998-0.004h-0.051v341.333h-85.333c-23.564 0-42.667 19.103-42.667 42.667s19.103 42.667 42.667 42.667v0h128c23.564 0 42.667-19.103 42.667-42.667v0-42.667h597.333c0.089 0.001 0.193 0.001 0.298 0.001 23.564 0 42.667-19.103 42.667-42.667 0-7.003-1.687-13.611-4.677-19.441l0.112 0.24-170.667-341.333c-7.182-14.031-21.541-23.468-38.103-23.468-0.104 0-0.209 0-0.313 0.001h-511.984c-23.564 0-42.667-19.103-42.667-42.667s19.103-42.667 42.667-42.667v0h512zM298.667 426.667h400.213l128 256h-528.213v-256zM298.667 85.334c23.564 0 42.667 19.103 42.667 42.667s-19.103 42.667-42.667 42.667v0c-23.564 0-42.667-19.103-42.667-42.667s19.103-42.667 42.667-42.667v0zM725.333 85.334c23.564 0 42.667 19.103 42.667 42.667s-19.103 42.667-42.667 42.667v0c-23.564 0-42.667-19.103-42.667-42.667s19.103-42.667 42.667-42.667v0z" />
<glyph unicode="&#xe90f;" glyph-name="trash-alt" d="M426.667 170.667c23.564 0 42.667 19.103 42.667 42.667v0 256c0 23.564-19.103 42.667-42.667 42.667s-42.667-19.103-42.667-42.667v0-256c0-23.564 19.103-42.667 42.667-42.667v0zM853.333 682.667h-170.667v42.667c0 70.692-57.308 128-128 128v0h-85.333c-70.692 0-128-57.308-128-128v0-42.667h-170.667c-23.564 0-42.667-19.103-42.667-42.667s19.103-42.667 42.667-42.667v0h42.667v-469.333c0-70.692 57.308-128 128-128v0h341.333c70.692 0 128 57.308 128 128v0 469.333h42.667c23.564 0 42.667 19.103 42.667 42.667s-19.103 42.667-42.667 42.667v0zM426.667 725.334c0 23.564 19.103 42.667 42.667 42.667v0h85.333c23.564 0 42.667-19.103 42.667-42.667v0-42.667h-170.667zM725.333 128c0-23.564-19.103-42.667-42.667-42.667v0h-341.333c-23.564 0-42.667 19.103-42.667 42.667v0 469.333h426.667zM597.333 170.667c23.564 0 42.667 19.103 42.667 42.667v0 256c0 23.564-19.103 42.667-42.667 42.667s-42.667-19.103-42.667-42.667v0-256c0-23.564 19.103-42.667 42.667-42.667v0z" />
<glyph unicode="&#xe910;" glyph-name="plus" d="M810.667 469.334h-256v256c0 23.564-19.103 42.667-42.667 42.667s-42.667-19.103-42.667-42.667v0-256h-256c-23.564 0-42.667-19.103-42.667-42.667s19.103-42.667 42.667-42.667v0h256v-256c0-23.564 19.103-42.667 42.667-42.667s42.667 19.103 42.667 42.667v0 256h256c23.564 0 42.667 19.103 42.667 42.667s-19.103 42.667-42.667 42.667v0z" />
<glyph unicode="&#xe911;" glyph-name="minus" d="M810.667 469.334h-597.333c-23.564 0-42.667-19.103-42.667-42.667s19.103-42.667 42.667-42.667v0h597.333c23.564 0 42.667 19.103 42.667 42.667s-19.103 42.667-42.667 42.667v0z" />
<glyph unicode="&#xe912;" glyph-name="heart-filled" horiz-adv-x="1259" d="M1155.358 854.504c-58.618 52.253-136.339 84.182-221.519 84.182s-162.901-31.929-221.85-84.472l0.332 0.29-83.023-76.219-83.101 76.219c-58.602 52.255-136.312 84.187-221.479 84.187s-162.877-31.932-221.81-84.476l0.33 0.289c-63.431-56.077-103.222-137.641-103.222-228.499s39.791-172.422 102.897-228.218l0.325-0.282 526.060-482.838 526.060 482.838c63.396 56.094 103.162 137.653 103.162 228.499s-39.765 172.405-102.839 228.219l-0.323 0.28z" />
</font>
</defs>
</svg>
